<?xml version="1.0" encoding="UTF-8" standalone="no"?>
<!-- Creator: CorelDRAW X5 -->

<svg
   xmlns:dc="http://purl.org/dc/elements/1.1/"
   xmlns:cc="http://creativecommons.org/ns#"
   xmlns:rdf="http://www.w3.org/1999/02/22-rdf-syntax-ns#"
   xmlns:svg="http://www.w3.org/2000/svg"
   xmlns="http://www.w3.org/2000/svg"
   xmlns:sodipodi="http://sodipodi.sourceforge.net/DTD/sodipodi-0.dtd"
   xmlns:inkscape="http://www.inkscape.org/namespaces/inkscape"
   xml:space="preserve"
   width="7.6503601in"
   height="2.8444445in"
   style="clip-rule:evenodd;fill-rule:evenodd;image-rendering:optimizeQuality;shape-rendering:geometricPrecision;text-rendering:geometricPrecision"
   viewBox="0 0 7650.3601 2844.4445"
   id="svg2"
   version="1.1"
   inkscape:version="0.91 r13725"
   sodipodi:docname="Rendact logo 2blue.svg"><metadata
     id="metadata23"><rdf:RDF><cc:Work
         rdf:about=""><dc:format>image/svg+xml</dc:format><dc:type
           rdf:resource="http://purl.org/dc/dcmitype/StillImage" /><dc:title></dc:title></cc:Work></rdf:RDF></metadata><sodipodi:namedview
     pagecolor="#ffffff"
     bordercolor="#666666"
     borderopacity="1"
     objecttolerance="10"
     gridtolerance="10"
     guidetolerance="10"
     inkscape:pageopacity="0"
     inkscape:pageshadow="2"
     inkscape:window-width="818"
     inkscape:window-height="543"
     id="namedview21"
     showgrid="false"
     fit-margin-top="0"
     fit-margin-left="0"
     fit-margin-right="0"
     fit-margin-bottom="0"
     inkscape:zoom="0.68888889"
     inkscape:cx="208.17"
     inkscape:cy="81.720016"
     inkscape:window-x="0"
     inkscape:window-y="0"
     inkscape:window-maximized="0"
     inkscape:current-layer="svg2" /><defs
     id="defs4"><style
       type="text/css"
       id="style6"><![CDATA[
    .fil0 {fill:#56B0C2}
    .fil2 {fill:#3A5C88;fill-rule:nonzero}
    .fil1 {fill:url(#id0);fill-rule:nonzero}
   ]]></style><radialGradient
       id="id0"
       gradientUnits="userSpaceOnUse"
       cx="992.13397"
       cy="1468.41"
       r="1030.67"
       fx="992.13397"
       fy="1468.41"><stop
         offset="0"
         style="stop-color:#FEFEFE"
         id="stop9" /><stop
         offset="1"
         style="stop-color:#11B2C6"
         id="stop11" /></radialGradient></defs><g
     id="Layer_x0020_1"
     transform="matrix(1.6605046,0,0,1.6605046,-310.51436,-1154.0507)"><metadata
       id="CorelCorpID_0Corel-Layer" /><path
       class="fil0"
       d="m 3927,2321 c 16,6 36,10 60,12 22,1 49,1 81,-2 31,-3 70,-10 115,-21 45,-11 90,-29 133,-51 43,-23 71,-49 83,-77 12,-28 1,-58 -32,-89 -33,-31 -105,-61 -216,-89 -89,-23 -206,-40 -351,-51 -145,-11 -306,-18 -483,-21 -177,-3 -367,-2 -569,3 -202,5 -403,11 -605,20 -201,8 -398,18 -590,29 -192,11 -368,21 -528,31 -160,10 -299,19 -416,27 -57,4 -66,4 -108,7 245,108 194,72 694,50 142,-6 295,-13 461,-19 166,-6 335,-11 507,-15 173,-4 345,-6 517,-7 172,-1 334,1 486,6 152,5 291,13 416,25 125,12 227,27 306,48 103,26 170,49 200,68 30,19 39,36 27,50 -12,14 -37,27 -76,37 -39,10 -77,20 -112,29 z"
       id="path15"
       inkscape:connector-curvature="0"
       style="fill:#56b0c2" /><path
       class="fil1"
       d="M 1284,819 C 945,623 512,739 316,1077 c -196,339 -80,772 258,968 339,196 772,80 968,-258 196,-339 80,-772 -258,-968 z"
       id="path17"
       style="fill:url(#id0);fill-rule:nonzero"
       inkscape:connector-curvature="0" /><path
       class="fil2"
       d="m 1750,2088 c 8,-1 15,0 22,3 6,4 11,10 15,19 4,9 7,23 7,43 0,20 -5,44 -15,73 -10,29 -25,57 -46,84 -21,27 -48,50 -80,69 -33,19 -72,29 -118,29 -37,0 -76,-11 -115,-33 -39,-22 -78,-51 -117,-88 -92,-85 -171,-173 -241,-277 -34,-51 -67,-102 -97,-153 -30,-51 -58,-98 -82,-141 -25,-43 -46,-81 -63,-114 -14,-26 -25,-46 -33,-61 -5,6 -12,14 -21,24 -14,16 -29,34 -47,54 -18,21 -36,43 -54,66 -19,23 -36,46 -51,67 -15,22 -28,42 -38,60 -10,18 -15,32 -15,42 0,6 0,13 1,22 0,9 0,18 -1,27 -1,9 -3,17 -7,23 -4,7 -10,10 -18,10 -5,0 -10,-1 -14,-3 -7,-1 -13,-3 -19,-8 -8,-5 -14,-14 -20,-27 -6,-12 -10,-29 -14,-49 -3,-20 -5,-46 -5,-76 0,-20 6,-43 18,-70 12,-27 28,-56 47,-87 69,-110 386,-671 420,-669 65,4 109,-16 156,36 12,13 18,28 18,46 0,17 -6,39 -19,64 -13,25 -27,49 -42,73 -8,12 -41,56 -77,105 -12,24 -26,47 -40,69 -18,26 -37,54 -59,81 58,-12 109,-29 153,-53 49,-26 90,-55 123,-88 33,-33 58,-66 75,-102 17,-35 25,-68 25,-99 0,-30 -8,-56 -23,-76 -15,-21 -34,-37 -57,-50 -23,-13 -48,-22 -75,-28 -27,-6 -53,-9 -77,-9 -16,0 -33,1 -49,2 -26,3 -52,8 -77,15 -48,13 -93,30 -137,52 -44,22 -85,47 -123,77 -38,29 -71,60 -99,93 -28,33 -50,66 -66,101 -16,35 -24,69 -24,101 0,17 2,32 5,43 4,11 8,20 12,27 5,8 11,14 19,18 7,7 13,12 18,16 4,4 6,8 8,11 2,3 0,5 -6,5 -4,0 -8,0 -12,-1 -18,0 -35,-5 -53,-12 -18,-8 -35,-21 -49,-39 -14,-18 -26,-40 -35,-68 -138,-409 781,-780 1042,-359 180,291 -274,537 -504,521 10,14 24,34 42,62 18,28 39,60 63,96 24,36 51,75 80,116 29,41 60,82 93,123 29,37 59,72 90,106 29,9 57,-2 93,-32 65,-53 156,-161 190,-232 45,-94 74,-199 74,-311 0,-379 -307,-686 -686,-686 -379,0 -686,307 -686,686 0,379 307,686 686,686 41,0 82,-4 121,-11 l 43,59 c -53,12 -108,18 -164,18 -415,0 -752,-337 -752,-752 0,-415 337,-752 752,-752 415,0 752,337 752,752 0,271 -144,509 -360,641 18,17 35,32 53,47 36,29 71,52 107,70 36,17 70,26 103,26 43,0 76,-5 98,-15 22,-10 38,-22 47,-37 10,-15 14,-31 15,-48 0,-17 1,-34 1,-49 z m 387,-524 c 4,-6 9,-10 14,-11 5,-2 10,-2 14,1 4,2 6,6 7,12 0,6 -2,13 -8,22 -4,6 -14,19 -30,39 -16,20 -36,43 -60,70 -24,26 -51,54 -80,84 -29,29 -59,56 -89,81 -30,24 -60,44 -89,60 -29,16 -55,25 -79,24 -20,-1 -37,-7 -53,-17 -13,-9 -25,-22 -36,-40 -11,-18 -16,-44 -16,-78 0,-33 7,-65 20,-98 13,-33 30,-65 51,-95 21,-30 44,-58 70,-84 26,-26 51,-49 75,-69 25,-20 47,-35 69,-46 21,-11 38,-16 51,-16 7,0 15,2 24,5 9,3 17,9 25,18 8,9 14,21 20,37 5,16 8,37 8,63 0,17 -6,36 -18,57 -12,21 -27,41 -45,62 -18,21 -39,41 -61,60 -22,20 -44,37 -66,52 -22,15 -41,27 -59,36 -18,9 -32,14 -41,14 -7,14 -11,26 -13,37 -2,9 -1,18 3,25 3,7 12,11 27,11 18,0 43,-10 75,-29 31,-19 65,-44 100,-74 36,-30 70,-64 105,-101 34,-37 63,-74 88,-110 z m -182,-28 c -4,0 -11,3 -19,10 -8,7 -17,15 -26,26 -9,11 -19,23 -30,37 -11,14 -21,27 -31,41 -24,34 -50,72 -78,114 37,-22 70,-46 97,-72 27,-26 49,-51 65,-75 16,-23 26,-43 30,-58 4,-16 1,-23 -8,-23 z m 372,408 c -21,0 -39,-13 -53,-38 -14,-25 -21,-59 -21,-100 0,-12 2,-25 7,-40 5,-15 11,-30 19,-47 8,-16 16,-33 26,-51 10,-17 19,-35 30,-51 24,-39 51,-79 81,-121 -6,0 -19,9 -38,27 -20,18 -43,41 -69,69 -26,28 -53,58 -82,91 -29,33 -55,65 -79,96 -24,31 -44,58 -59,82 -16,24 -24,40 -24,48 0,20 -4,31 -12,33 -8,1 -16,-3 -26,-13 -10,-10 -18,-25 -26,-44 -8,-19 -12,-40 -12,-61 0,-15 5,-33 16,-54 11,-22 24,-45 40,-71 16,-25 34,-52 53,-79 19,-28 37,-54 53,-81 16,-26 29,-51 40,-75 11,-24 16,-45 16,-63 0,-9 4,-14 13,-14 8,0 18,5 27,15 10,9 19,24 27,42 8,19 13,42 13,69 0,14 -2,26 -6,36 -4,11 -8,20 -13,28 -5,9 -12,17 -19,25 37,-38 72,-71 104,-100 14,-12 28,-25 41,-37 14,-12 26,-23 38,-33 12,-9 23,-17 32,-23 10,-6 16,-9 21,-9 10,0 18,3 26,9 8,6 14,15 19,25 5,11 9,22 12,35 3,13 4,26 4,39 0,9 -6,24 -19,46 -12,22 -28,47 -46,76 -18,28 -38,57 -58,88 -20,30 -38,58 -53,83 -15,25 -27,46 -33,62 -7,16 -6,24 3,24 16,0 38,-11 64,-32 27,-21 55,-48 86,-80 30,-32 61,-68 92,-107 31,-39 58,-77 82,-113 4,-6 8,-10 14,-11 5,-2 10,-2 14,1 4,2 6,6 6,12 0,6 -2,13 -8,22 -4,6 -13,19 -27,39 -15,20 -32,44 -53,71 -21,27 -44,55 -69,85 -25,30 -51,58 -77,83 -26,25 -51,46 -75,62 -24,16 -45,24 -63,24 z m 599,-57 c 8,0 24,-10 48,-30 24,-20 51,-46 81,-78 30,-32 61,-66 93,-104 32,-38 60,-75 84,-112 4,-6 9,-10 14,-11 5,-2 10,-2 14,1 4,2 6,6 7,12 0,6 -2,13 -8,22 -4,6 -13,19 -28,39 -15,20 -33,43 -55,70 -22,26 -45,54 -71,84 -26,29 -52,56 -77,81 -26,25 -50,45 -74,61 -23,16 -44,24 -60,24 -13,0 -26,-2 -38,-7 -12,-5 -23,-13 -32,-23 -9,-11 -17,-25 -23,-44 -6,-18 -9,-40 -9,-66 -21,27 -41,51 -60,71 -17,18 -34,33 -52,48 -18,15 -33,22 -44,22 -12,0 -24,-2 -38,-7 -14,-5 -26,-13 -38,-23 -12,-11 -21,-25 -29,-42 -8,-17 -12,-38 -12,-63 0,-25 7,-52 20,-82 13,-30 31,-60 52,-90 22,-30 46,-59 73,-87 27,-28 54,-53 82,-75 27,-22 54,-39 79,-52 25,-13 46,-20 64,-20 19,0 35,3 48,10 13,7 24,14 32,22 9,9 16,20 21,32 45,-72 84,-138 120,-198 15,-26 30,-51 44,-77 14,-26 27,-50 38,-72 11,-22 20,-42 27,-58 7,-17 10,-29 10,-37 0,-9 5,-15 15,-17 10,-3 20,-1 32,6 11,7 22,20 32,39 10,19 15,46 15,81 0,16 -7,39 -20,69 -14,30 -31,64 -53,102 -22,38 -46,79 -73,122 -27,44 -54,87 -81,130 -27,43 -53,84 -77,124 -25,40 -45,75 -62,105 -17,30 -28,55 -35,73 -6,18 -5,27 5,27 z m -272,3 c 11,0 27,-10 49,-29 22,-20 46,-44 71,-73 26,-29 51,-61 77,-96 26,-34 48,-66 66,-96 18,-29 31,-54 38,-73 7,-20 5,-29 -7,-29 -9,0 -23,7 -41,20 -19,13 -39,31 -61,53 -22,22 -45,47 -69,75 -24,28 -46,56 -65,85 -20,29 -36,57 -48,84 -12,27 -19,51 -19,72 0,1 0,3 1,4 1,3 4,4 8,4 z m 819,-490 c 16,0 31,6 44,18 13,12 24,25 31,40 8,15 12,28 14,40 2,12 0,18 -6,18 -21,0 -46,9 -75,27 -29,18 -58,41 -88,69 -30,28 -58,57 -86,89 -27,32 -50,62 -68,89 -18,28 -30,50 -36,69 -6,18 -2,27 11,27 4,0 14,-6 28,-18 14,-12 31,-28 49,-47 19,-19 38,-40 58,-62 20,-22 38,-44 55,-63 16,-20 30,-37 40,-51 10,-15 14,-24 13,-27 -3,-5 -1,-8 7,-8 8,0 17,3 27,9 11,6 20,15 30,27 9,12 14,28 14,48 0,20 -5,41 -15,64 -10,23 -21,44 -32,63 -11,19 -19,35 -25,48 -6,13 -4,19 4,19 9,0 25,-10 47,-30 23,-20 48,-46 77,-78 29,-32 58,-66 89,-104 31,-38 58,-75 82,-112 4,-6 9,-10 14,-11 5,-2 10,-2 14,1 4,2 6,6 7,12 0,6 -2,13 -8,22 -4,6 -14,19 -28,39 -14,20 -32,43 -52,70 -20,26 -43,54 -68,84 -25,29 -50,56 -75,81 -25,25 -49,45 -71,61 -23,16 -42,24 -59,24 -11,0 -22,-4 -33,-11 -11,-7 -21,-16 -29,-26 -8,-10 -15,-21 -20,-32 -5,-11 -8,-20 -8,-26 0,-7 1,-14 3,-21 2,-8 4,-15 6,-21 3,-8 6,-16 10,-24 -26,30 -51,57 -75,80 -20,20 -40,39 -59,55 -20,17 -35,25 -45,25 -10,0 -21,-3 -33,-9 -12,-6 -23,-15 -33,-26 -11,-11 -19,-24 -26,-40 -7,-16 -10,-33 -10,-53 0,-21 7,-46 20,-75 14,-29 31,-58 53,-89 22,-31 47,-61 75,-91 28,-30 57,-57 86,-81 29,-24 57,-43 84,-58 27,-15 51,-22 71,-22 z m 343,543 c -28,0 -51,-5 -70,-14 -19,-9 -34,-22 -45,-39 -11,-17 -20,-36 -25,-58 -5,-22 -8,-45 -8,-71 0,-17 5,-37 14,-62 10,-25 22,-50 37,-77 15,-27 33,-54 52,-81 19,-27 39,-51 59,-72 20,-21 40,-39 59,-52 19,-13 36,-20 51,-20 8,0 15,2 20,7 5,4 10,9 14,14 4,6 7,12 9,20 0,-2 3,-6 8,-11 5,-5 11,-11 16,-16 6,-6 11,-12 16,-18 5,-6 8,-12 8,-18 0,-5 2,-7 7,-5 5,1 10,6 16,14 6,8 12,19 16,34 5,15 7,33 7,54 0,30 -4,53 -12,67 -8,15 -16,27 -26,38 -10,11 -18,22 -26,35 -8,13 -12,33 -12,61 -20,0 -36,-6 -47,-19 -12,-13 -20,-27 -26,-42 -7,-18 -12,-38 -14,-61 -24,25 -46,52 -65,82 -16,25 -31,54 -44,86 -13,32 -20,65 -20,100 0,25 6,43 19,53 12,10 26,15 41,15 6,0 16,-5 30,-15 14,-10 30,-23 49,-39 19,-16 39,-35 61,-57 22,-22 45,-45 67,-70 22,-25 44,-50 65,-76 21,-26 39,-51 55,-75 4,-6 9,-10 14,-11 5,-2 10,-2 14,1 4,2 6,6 7,12 0,6 -2,13 -8,22 -4,6 -14,19 -30,39 -16,20 -36,44 -59,71 -23,27 -48,55 -76,85 -27,30 -55,58 -82,83 -27,25 -53,46 -77,62 -24,16 -45,24 -61,24 z m 976,-627 c 3,10 3,18 0,22 -3,5 -6,8 -10,9 -5,2 -11,3 -18,2 0,-8 -4,-17 -13,-28 -8,-11 -21,-21 -37,-32 -16,-10 -36,-19 -60,-26 -23,-7 -51,-10 -81,-10 -12,0 -23,0 -35,0 -11,0 -23,0 -33,1 -23,41 -48,84 -76,131 -28,47 -56,94 -83,140 -28,47 -54,92 -79,135 -25,43 -45,81 -61,115 -16,33 -26,60 -30,80 -4,20 1,30 14,30 8,0 24,-10 49,-30 25,-20 52,-46 83,-78 31,-32 62,-66 95,-104 33,-38 61,-75 85,-112 4,-6 8,-10 14,-11 5,-2 10,-2 14,1 4,2 6,6 6,12 0,6 -2,13 -8,22 -4,6 -13,19 -28,39 -15,20 -33,43 -55,70 -22,26 -46,54 -72,84 -26,29 -53,56 -79,81 -26,25 -51,45 -75,61 -24,16 -44,24 -61,24 -20,0 -37,-4 -49,-13 -12,-8 -22,-19 -29,-31 -7,-12 -12,-26 -14,-41 -2,-15 -3,-29 -3,-42 0,-12 4,-30 12,-52 8,-22 19,-48 33,-76 14,-29 30,-60 49,-94 19,-34 38,-69 59,-106 20,-37 42,-74 63,-112 22,-38 43,-75 63,-112 -19,1 -39,2 -59,2 -20,0 -42,0 -64,0 -31,0 -57,-3 -78,-8 -21,-5 -39,-13 -53,-21 -14,-9 -25,-18 -33,-29 -8,-11 -15,-22 -19,-33 -7,-19 -7,-30 -1,-35 6,-4 14,-2 24,5 16,13 38,25 65,35 27,11 60,16 98,16 33,0 64,-1 92,-3 28,-2 52,-4 71,-6 28,-51 50,-97 68,-136 17,-39 26,-68 26,-86 0,-8 5,-12 16,-11 11,1 23,6 37,16 14,10 26,24 37,42 11,18 16,42 16,69 0,9 -3,23 -10,40 -7,17 -16,38 -29,61 l 32,0 c 34,0 64,4 89,13 25,8 47,19 64,32 18,13 31,27 41,42 10,16 17,31 21,45 z"
       id="path19"
       inkscape:connector-curvature="0"
       style="fill:#3a5c88;fill-rule:nonzero" /></g></svg>