<?xml version="1.0" encoding="UTF-8" standalone="no"?>
<!-- Creator: CorelDRAW X5 -->

<svg
   xmlns:dc="http://purl.org/dc/elements/1.1/"
   xmlns:cc="http://creativecommons.org/ns#"
   xmlns:rdf="http://www.w3.org/1999/02/22-rdf-syntax-ns#"
   xmlns:svg="http://www.w3.org/2000/svg"
   xmlns="http://www.w3.org/2000/svg"
   xmlns:sodipodi="http://sodipodi.sourceforge.net/DTD/sodipodi-0.dtd"
   xmlns:inkscape="http://www.inkscape.org/namespaces/inkscape"
   xml:space="preserve"
   width="7.6859016in"
   height="2.8444443in"
   style="clip-rule:evenodd;fill-rule:evenodd;image-rendering:optimizeQuality;shape-rendering:geometricPrecision;text-rendering:geometricPrecision"
   viewBox="0 0 7685.9016 2844.4443"
   id="svg2"
   version="1.1"
   inkscape:version="0.91 r13725"
   sodipodi:docname="Rendact logo 1gray.svg"><metadata
     id="metadata31"><rdf:RDF><cc:Work
         rdf:about=""><dc:format>image/svg+xml</dc:format><dc:type
           rdf:resource="http://purl.org/dc/dcmitype/StillImage" /><dc:title></dc:title></cc:Work></rdf:RDF></metadata><sodipodi:namedview
     pagecolor="#ffffff"
     bordercolor="#666666"
     borderopacity="1"
     objecttolerance="10"
     gridtolerance="10"
     guidetolerance="10"
     inkscape:pageopacity="0"
     inkscape:pageshadow="2"
     inkscape:window-width="938"
     inkscape:window-height="577"
     id="namedview29"
     showgrid="false"
     fit-margin-top="0"
     fit-margin-left="0"
     fit-margin-right="0"
     fit-margin-bottom="0"
     inkscape:zoom="0.68888889"
     inkscape:cx="208.08"
     inkscape:cy="84.689997"
     inkscape:window-x="0"
     inkscape:window-y="0"
     inkscape:window-maximized="0"
     inkscape:current-layer="svg2" /><defs
     id="defs4"><style
       type="text/css"
       id="style6"><![CDATA[
    .fil1 {fill:#3A5C88;fill-rule:nonzero}
    .fil0 {fill:url(#id0);fill-rule:nonzero}
   ]]></style><linearGradient
       id="id0"
       gradientUnits="userSpaceOnUse"
       x1="445.48801"
       y1="1177.98"
       x2="1551.55"
       y2="1818.33"><stop
         offset="0"
         style="stop-color:#FEFEFE"
         id="stop9" /><stop
         offset="0.129412"
         style="stop-color:#E6E7E8"
         id="stop11" /><stop
         offset="0.309804"
         style="stop-color:#D2D3D5"
         id="stop13" /><stop
         offset="0.431373"
         style="stop-color:#EFF1F1"
         id="stop15" /><stop
         offset="0.741176"
         style="stop-color:#E6E7E8"
         id="stop17" /><stop
         offset="0.909804"
         style="stop-color:#D2D3D5"
         id="stop19" /><stop
         offset="1"
         style="stop-color:#96989A"
         id="stop21" /></linearGradient></defs><g
     id="Layer_x0020_1"
     transform="matrix(1.6624455,0,0,1.6624455,-312.53975,-1213.5852)"><metadata
       id="CorelCorpID_0Corel-Layer" /><path
       class="fil0"
       d="M 1289,852 C 952,657 520,772 325,1109 c -195,337 -80,769 257,964 337,195 769,80 964,-257 195,-337 80,-769 -257,-964 z"
       id="path25"
       style="fill:url(#id0);fill-rule:nonzero"
       inkscape:connector-curvature="0" /><path
       class="fil1"
       d="m 1754,2122 c 8,-1 15,0 22,3 6,4 11,10 15,19 4,9 7,23 7,43 0,20 -5,44 -15,73 -10,29 -25,57 -46,83 -21,27 -48,50 -80,69 -33,19 -72,29 -118,29 -37,0 -76,-11 -115,-33 -39,-22 -79,-51 -118,-87 -67,-61 -132,-139 -188,-212 -17,-23 -34,-47 -50,-72 -34,-51 -66,-101 -97,-152 -30,-51 -58,-98 -82,-141 -24,-43 -45,-81 -63,-113 -14,-26 -25,-46 -33,-61 -5,7 -14,17 -27,32 -14,16 -29,34 -47,54 -18,21 -36,42 -55,66 -19,23 -36,45 -51,67 -15,22 -28,42 -39,60 -10,18 -15,32 -15,42 0,6 0,13 1,22 0,9 0,18 -1,27 -1,9 -3,17 -7,23 -4,7 -10,10 -18,10 -9,0 -17,-3 -25,-8 -8,-5 -15,-14 -20,-27 -6,-12 -10,-29 -14,-49 -3,-20 -5,-45 -5,-76 0,-4 0,-7 1,-11 0,-19 6,-41 18,-67 12,-27 28,-56 47,-87 69,-110 384,-668 418,-666 65,4 108,-16 156,36 12,13 18,28 18,45 0,17 -6,38 -19,64 -13,25 -26,49 -42,72 -8,12 -43,59 -81,110 -13,25 -27,48 -42,71 -16,24 -34,49 -53,74 57,-12 108,-29 153,-53 49,-26 89,-55 122,-87 33,-32 58,-66 74,-101 17,-35 25,-68 25,-98 0,-30 -8,-56 -23,-76 -15,-21 -34,-37 -57,-50 -7,-4 -14,-7 -21,-11 -13,-5 -27,-9 -41,-12 -28,-6 -54,-9 -79,-9 -48,0 -96,6 -143,19 -48,13 -94,30 -138,51 -44,22 -85,47 -123,76 -38,29 -71,60 -100,93 -28,32 -51,66 -67,101 -11,24 -18,47 -22,69 -1,8 -1,16 -1,24 0,17 2,31 5,43 4,11 8,20 12,26 5,8 11,14 18,18 7,6 13,12 17,16 4,4 6,8 8,11 1,2 1,4 -2,4 1,1 1,2 2,3 2,3 0,5 -6,5 -19,0 -38,-4 -57,-12 -19,-8 -35,-21 -50,-39 -15,-18 -27,-40 -36,-68 -9,-27 -14,-60 -14,-99 0,-36 9,-70 26,-102 135,-314 811,-515 1028,-164 170,275 -226,508 -463,519 -16,3 -30,5 -45,6 10,14 24,34 42,62 18,28 39,60 63,96 24,36 51,75 80,116 29,41 60,82 93,123 25,32 51,62 78,92 34,18 66,9 108,-25 65,-53 155,-161 189,-231 45,-94 74,-198 74,-310 0,-377 -306,-683 -683,-683 -377,0 -683,306 -683,683 0,377 306,683 683,683 41,0 82,-4 121,-11 l 43,58 c -53,12 -107,18 -164,18 -413,0 -749,-335 -749,-749 0,-413 335,-749 749,-749 413,0 749,335 749,749 0,273 -146,511 -364,642 19,18 38,35 57,50 36,29 71,52 107,69 36,17 70,26 103,26 43,0 76,-5 98,-15 22,-10 38,-22 47,-37 10,-15 15,-31 15,-48 0,-17 1,-34 1,-49 z m 389,-522 c 4,-6 9,-10 14,-11 5,-2 10,-2 14,1 4,2 6,6 7,12 0,6 -2,13 -8,22 -4,6 -14,19 -30,38 -16,20 -36,43 -61,69 -24,26 -51,54 -80,83 -29,29 -59,56 -90,80 -30,24 -60,44 -89,60 -29,16 -55,25 -79,24 -20,-1 -37,-7 -53,-17 -13,-9 -25,-22 -36,-40 -11,-18 -17,-44 -17,-77 0,-32 7,-65 20,-98 13,-33 30,-64 51,-94 21,-30 44,-58 70,-84 26,-26 51,-49 75,-68 25,-19 48,-35 69,-45 21,-11 38,-16 51,-16 7,0 15,2 24,5 9,3 17,9 25,18 8,9 14,21 20,37 6,16 8,37 8,63 0,17 -6,36 -18,57 -12,21 -27,41 -45,62 -18,21 -39,41 -61,60 -22,19 -44,37 -66,52 -22,15 -42,27 -60,36 -18,9 -32,14 -41,14 -7,14 -11,26 -13,37 -2,9 -1,18 3,25 3,7 12,11 27,11 18,0 43,-10 75,-29 32,-19 65,-44 101,-74 36,-30 71,-64 105,-101 35,-37 64,-74 88,-110 z m -183,-28 c -4,0 -11,3 -19,10 -8,6 -17,15 -26,26 -9,11 -19,23 -30,37 -11,14 -21,27 -31,41 -24,34 -50,72 -78,114 37,-22 70,-46 97,-72 27,-26 49,-51 65,-74 16,-23 26,-42 30,-58 4,-16 1,-23 -8,-23 z m 374,406 c -21,0 -39,-13 -53,-38 -14,-25 -21,-58 -21,-100 0,-12 2,-25 7,-40 5,-15 11,-30 19,-47 8,-16 16,-33 26,-50 10,-17 19,-34 30,-51 24,-38 51,-78 82,-120 -6,0 -19,9 -39,27 -20,18 -43,41 -69,68 -26,27 -53,58 -82,91 -29,33 -55,65 -79,96 -24,31 -44,58 -60,81 -16,23 -24,40 -24,48 0,20 -4,31 -12,32 -8,1 -16,-3 -26,-13 -10,-10 -18,-25 -26,-44 -8,-19 -12,-40 -12,-61 0,-14 5,-32 16,-54 11,-22 24,-45 40,-70 16,-25 34,-52 53,-79 19,-27 37,-54 53,-80 16,-26 30,-51 40,-75 11,-24 16,-45 16,-63 0,-9 4,-14 13,-14 8,0 18,5 28,15 10,9 19,23 28,42 8,19 13,42 13,68 0,14 -2,26 -6,36 -4,10 -8,20 -13,28 -6,9 -12,17 -19,25 37,-38 72,-71 105,-100 14,-12 28,-25 41,-37 14,-12 26,-23 39,-32 12,-9 23,-17 33,-23 10,-6 17,-9 21,-9 10,0 18,3 26,9 8,6 14,14 19,25 5,10 9,22 12,35 3,13 4,26 4,39 0,9 -6,24 -19,46 -12,22 -28,47 -46,75 -18,28 -38,57 -58,87 -20,30 -38,57 -53,82 -15,25 -27,45 -34,62 -7,16 -6,24 3,24 16,0 38,-10 64,-31 27,-21 55,-47 86,-80 30,-32 61,-68 92,-107 31,-39 59,-76 83,-113 4,-6 8,-10 14,-11 6,-2 10,-2 14,1 4,2 6,6 6,12 0,6 -2,13 -8,22 -4,6 -13,19 -28,39 -15,20 -33,44 -53,70 -21,27 -44,55 -69,85 -25,30 -51,57 -77,82 -26,25 -51,45 -75,62 -24,16 -45,24 -63,24 z m 602,-56 c 8,0 24,-10 48,-30 24,-20 51,-46 82,-77 30,-31 62,-66 94,-104 32,-38 60,-75 84,-111 4,-6 9,-10 14,-11 5,-2 10,-2 14,1 4,2 6,6 7,12 0,6 -2,13 -8,22 -4,6 -13,19 -28,38 -15,20 -33,43 -55,69 -22,26 -46,54 -72,83 -26,29 -52,56 -78,81 -26,25 -50,45 -74,61 -24,16 -44,24 -61,24 -13,0 -26,-2 -38,-7 -12,-5 -23,-12 -32,-23 -9,-11 -17,-25 -23,-43 -6,-18 -9,-40 -9,-66 -21,27 -41,50 -61,70 -17,17 -34,33 -52,48 -18,14 -33,22 -45,22 -12,0 -24,-2 -38,-7 -14,-5 -26,-12 -38,-23 -12,-11 -21,-25 -29,-42 -8,-17 -12,-38 -12,-62 0,-25 7,-52 20,-81 13,-30 31,-59 52,-89 22,-30 46,-59 73,-87 27,-28 55,-53 82,-74 28,-22 54,-39 79,-52 25,-13 46,-19 64,-19 19,0 35,3 48,10 13,7 24,14 32,22 9,9 16,20 21,31 45,-71 85,-137 120,-197 15,-25 30,-51 45,-76 14,-26 27,-49 39,-71 11,-22 21,-41 28,-58 7,-17 10,-29 10,-37 0,-9 5,-14 15,-17 10,-3 21,-1 32,6 11,7 22,20 32,39 10,19 15,46 15,81 0,16 -7,39 -20,68 -14,30 -31,63 -53,101 -22,38 -46,79 -73,122 -27,43 -54,86 -82,129 -27,43 -53,84 -78,123 -25,39 -45,74 -62,105 -17,30 -28,55 -35,73 -6,18 -5,27 5,27 z m -273,3 c 11,0 28,-10 50,-29 22,-19 46,-44 72,-73 26,-29 52,-61 78,-95 26,-34 48,-66 67,-95 18,-29 31,-54 38,-73 7,-19 5,-29 -7,-29 -9,0 -23,7 -41,20 -19,13 -39,31 -62,53 -22,22 -46,46 -69,74 -24,28 -46,56 -66,84 -20,29 -36,56 -48,83 -12,27 -19,51 -19,72 0,1 0,3 1,4 1,3 4,4 8,4 z m 822,-487 c 16,0 31,6 44,18 13,12 24,25 31,40 8,14 12,28 14,40 2,12 0,18 -6,18 -21,0 -46,9 -75,27 -29,18 -58,41 -88,68 -30,27 -58,57 -86,89 -28,32 -50,61 -68,89 -18,27 -30,50 -36,68 -6,18 -2,27 11,27 4,0 14,-6 28,-18 14,-12 31,-28 50,-47 19,-19 38,-39 58,-62 20,-22 39,-43 55,-63 17,-19 30,-36 40,-51 10,-14 14,-24 13,-27 -3,-5 -1,-8 7,-8 8,0 17,3 28,9 11,6 21,15 30,27 9,12 14,28 14,48 0,19 -5,41 -15,63 -10,23 -21,44 -32,63 -11,19 -19,35 -25,48 -6,13 -4,19 4,19 9,0 25,-10 47,-30 23,-20 48,-46 77,-77 29,-31 58,-66 89,-104 31,-38 58,-75 83,-111 4,-6 9,-10 14,-11 5,-2 10,-2 14,1 4,2 6,6 7,12 0,6 -2,13 -8,22 -4,6 -14,19 -28,38 -14,20 -32,43 -52,69 -21,26 -43,54 -68,83 -25,29 -50,56 -75,81 -25,25 -49,45 -72,61 -23,16 -43,24 -60,24 -11,0 -22,-4 -33,-11 -11,-7 -21,-16 -29,-26 -8,-10 -15,-21 -20,-31 -5,-11 -8,-19 -8,-26 0,-7 1,-14 3,-21 2,-8 4,-15 6,-21 3,-8 6,-16 10,-24 -26,30 -51,56 -75,80 -20,20 -40,39 -60,55 -20,17 -35,25 -45,25 -10,0 -21,-3 -33,-9 -12,-6 -23,-15 -34,-25 -11,-11 -19,-24 -26,-40 -7,-16 -10,-33 -10,-53 0,-21 7,-46 20,-74 14,-29 31,-58 53,-89 22,-31 47,-61 75,-91 28,-30 57,-57 86,-81 29,-24 57,-43 84,-57 27,-14 51,-22 72,-22 z m 344,541 c -28,0 -51,-5 -70,-14 -19,-9 -34,-22 -45,-39 -11,-17 -20,-36 -25,-57 -5,-22 -8,-45 -8,-70 0,-17 5,-37 14,-62 10,-25 22,-50 37,-77 15,-27 33,-53 52,-80 19,-27 39,-51 60,-72 20,-21 40,-39 59,-52 19,-13 36,-20 51,-20 8,0 15,2 20,7 6,4 10,9 14,14 4,6 7,12 9,20 0,-2 3,-6 8,-11 5,-5 11,-10 17,-16 6,-6 11,-12 17,-18 5,-6 8,-12 8,-18 0,-5 2,-7 7,-5 5,1 10,6 17,14 6,8 12,19 17,34 5,14 7,33 7,54 0,30 -4,53 -12,67 -8,14 -16,27 -26,37 -10,10 -18,22 -26,35 -8,13 -12,33 -12,61 -20,0 -36,-6 -47,-19 -12,-13 -20,-27 -26,-42 -7,-18 -12,-38 -14,-61 -24,25 -46,52 -65,81 -16,25 -31,54 -44,86 -13,32 -20,65 -20,100 0,25 6,43 19,53 12,10 26,15 41,15 6,0 16,-5 30,-15 14,-10 30,-23 49,-39 19,-16 39,-35 62,-57 22,-22 45,-45 67,-69 22,-25 44,-50 65,-75 21,-26 39,-51 56,-74 4,-6 9,-10 14,-11 5,-2 10,-2 14,1 4,2 6,6 7,12 0,6 -2,13 -8,22 -4,6 -14,19 -30,39 -16,20 -36,44 -59,70 -23,27 -48,55 -76,85 -28,30 -55,57 -83,82 -28,25 -53,45 -78,62 -24,16 -45,24 -62,24 z m 980,-624 c 3,10 3,18 0,22 -3,5 -6,8 -10,9 -5,2 -11,3 -18,2 0,-8 -4,-17 -13,-28 -8,-11 -21,-21 -37,-31 -17,-10 -37,-19 -60,-25 -24,-7 -51,-10 -82,-10 -12,0 -23,0 -35,0 -11,0 -23,0 -34,1 -23,40 -48,84 -76,131 -28,47 -56,93 -84,140 -28,47 -54,91 -79,134 -25,43 -45,81 -61,114 -16,33 -26,60 -30,80 -4,20 1,30 14,30 8,0 24,-10 49,-30 25,-20 52,-46 83,-77 31,-31 63,-66 95,-104 33,-38 61,-75 85,-111 4,-6 8,-10 14,-11 6,-2 10,-2 14,1 4,2 6,6 6,12 0,6 -2,13 -8,22 -4,6 -13,19 -28,38 -15,20 -34,43 -56,69 -22,26 -46,54 -73,83 -26,29 -53,56 -79,81 -26,25 -51,45 -75,61 -24,16 -44,24 -61,24 -21,0 -37,-4 -50,-12 -12,-8 -22,-19 -29,-31 -7,-12 -12,-26 -14,-41 -2,-15 -3,-29 -3,-42 0,-12 4,-29 12,-51 8,-22 19,-47 33,-76 14,-29 30,-60 49,-94 19,-34 38,-69 59,-106 21,-36 42,-74 63,-112 22,-38 43,-75 63,-111 -19,1 -39,2 -60,2 -21,0 -42,0 -64,0 -31,0 -57,-3 -78,-8 -21,-5 -39,-12 -53,-21 -14,-9 -26,-18 -34,-29 -8,-11 -15,-22 -19,-32 -7,-19 -7,-30 -1,-35 6,-4 14,-2 24,5 16,13 38,25 65,35 27,10 60,16 98,16 33,0 64,-1 92,-3 28,-2 52,-4 71,-6 28,-51 51,-96 68,-135 17,-39 26,-68 26,-86 0,-8 6,-12 17,-11 11,1 23,6 37,16 14,10 26,24 37,42 11,18 17,41 17,69 0,9 -3,23 -10,40 -7,17 -16,38 -29,61 l 32,0 c 35,0 64,4 90,12 25,8 47,19 64,31 18,13 31,27 41,42 10,16 17,30 21,45 z"
       id="path27"
       inkscape:connector-curvature="0"
       style="fill:#3a5c88;fill-rule:nonzero" /></g></svg>